<svg viewBox="0 0 80 80" fill="none" xmlns="http://www.w3.org/2000/svg">
  <defs>
    <radialGradient id="lpg" cx="50%" cy="50%" r="55%"><stop offset="0%" stop-color="#10b981" stop-opacity="0.3"/><stop offset="100%" stop-color="#10b981" stop-opacity="0"/></radialGradient>
    <linearGradient id="lpbg" x1="0" y1="0" x2="1" y2="1"><stop offset="0%" stop-color="#001209"/><stop offset="100%" stop-color="#000c05"/></linearGradient>
  </defs>
  <rect width="80" height="80" rx="18" fill="url(#lpbg)"/>
  <rect width="80" height="80" rx="18" fill="url(#lpg)"/>
  <rect x="1" y="1" width="78" height="78" rx="17" stroke="#10b981" stroke-opacity="0.45" stroke-width="1.5"/>
  <rect x="13" y="18" width="54" height="42" rx="5" fill="#10b981" fill-opacity="0.1" stroke="#10b981" stroke-opacity="0.6" stroke-width="1.5"/>
  <rect x="13" y="18" width="54" height="10" rx="5" fill="#10b981" fill-opacity="0.2"/>
  <rect x="16" y="21" width="20" height="4" rx="2" fill="#10b981" fill-opacity="0.4"/>
  <circle cx="47" cy="23" r="2" fill="#10b981" fill-opacity="0.5"/>
  <circle cx="53" cy="23" r="2" fill="#10b981" fill-opacity="0.5"/>
  <circle cx="59" cy="23" r="2" fill="#10b981" fill-opacity="0.5"/>
  <rect x="19" y="33" width="32" height="4" rx="2" fill="#10b981" fill-opacity="0.4"/>
  <rect x="19" y="40" width="22" height="3" rx="1.5" fill="#10b981" fill-opacity="0.25"/>
  <rect x="19" y="46" width="26" height="3" rx="1.5" fill="#10b981" fill-opacity="0.2"/>
  <rect x="19" y="52" width="18" height="5" rx="2.5" fill="#10b981" fill-opacity="0.4" stroke="#10b981" stroke-opacity="0.7" stroke-width="1"/>
  <rect x="45" y="33" width="18" height="16" rx="3" fill="#10b981" fill-opacity="0.15" stroke="#10b981" stroke-opacity="0.4" stroke-width="1"/>
  <path d="M47 46 L51 40 L55 44 L57 41 L61 46 Z" fill="#10b981" fill-opacity="0.3"/>
  <circle cx="66" cy="18" r="2" fill="#10b981" opacity="0.9"/>
  <circle cx="66" cy="18" r="5" fill="#10b981" opacity="0.15"/>
</svg>
