<svg viewBox="0 0 72 72" fill="none" xmlns="http://www.w3.org/2000/svg">
  <defs>
    <radialGradient id="bg" cx="50%" cy="50%" r="60%">
      <stop offset="0%" stop-color="#a855f7" stop-opacity="0.16"/>
      <stop offset="100%" stop-color="#a855f7" stop-opacity="0"/>
    </radialGradient>
  </defs>
  <rect width="72" height="72" rx="16" fill="white" fill-opacity="0.05"/>
  <rect width="72" height="72" rx="16" fill="url(#bg)"/>
  <rect x="0.75" y="0.75" width="70.5" height="70.5" rx="15.25" stroke="white" stroke-opacity="0.12" stroke-width="1.5"/>
  <g transform="translate(36,36)">
    <line x1="0" y1="0" x2="0" y2="-21" stroke="#a855f7" stroke-opacity="0.65" stroke-width="1.3"/>
    <line x1="0" y1="0" x2="19" y2="10.5" stroke="#a855f7" stroke-opacity="0.65" stroke-width="1.3"/>
    <line x1="0" y1="0" x2="-19" y2="10.5" stroke="#a855f7" stroke-opacity="0.65" stroke-width="1.3"/>
    <line x1="0" y1="0" x2="19" y2="-10.5" stroke="#a855f7" stroke-opacity="0.65" stroke-width="1.3"/>
    <line x1="0" y1="0" x2="-19" y2="-10.5" stroke="#a855f7" stroke-opacity="0.65" stroke-width="1.3"/>
    <line x1="0" y1="-21" x2="19" y2="-10.5" stroke="#a855f7" stroke-opacity="0.28" stroke-width="0.9"/>
    <line x1="19" y1="-10.5" x2="19" y2="10.5" stroke="#a855f7" stroke-opacity="0.28" stroke-width="0.9"/>
    <line x1="19" y1="10.5" x2="-19" y2="10.5" stroke="#a855f7" stroke-opacity="0.28" stroke-width="0.9"/>
    <line x1="-19" y1="10.5" x2="-19" y2="-10.5" stroke="#a855f7" stroke-opacity="0.28" stroke-width="0.9"/>
    <line x1="-19" y1="-10.5" x2="0" y2="-21" stroke="#a855f7" stroke-opacity="0.28" stroke-width="0.9"/>
    <circle cx="0"  cy="-21"  r="3" fill="#a855f7" fill-opacity="0.85"/>
    <circle cx="19"  cy="-10.5" r="3" fill="#a855f7" fill-opacity="0.85"/>
    <circle cx="19"  cy="10.5"  r="3" fill="#a855f7" fill-opacity="0.85"/>
    <circle cx="-19" cy="10.5"  r="3" fill="#a855f7" fill-opacity="0.85"/>
    <circle cx="-19" cy="-10.5" r="3" fill="#a855f7" fill-opacity="0.85"/>
    <circle r="5.5" fill="#a855f7" fill-opacity="0.2" stroke="#a855f7" stroke-opacity="0.7" stroke-width="1.2"/>
    <circle r="2.5" fill="#c084fc"/>
  </g>
</svg>