<svg viewBox="0 0 80 80" fill="none" xmlns="http://www.w3.org/2000/svg">
  <defs>
    <radialGradient id="lg" cx="50%" cy="50%" r="55%"><stop offset="0%" stop-color="#a855f7" stop-opacity="0.3"/><stop offset="100%" stop-color="#a855f7" stop-opacity="0"/></radialGradient>
    <linearGradient id="lbg" x1="0" y1="0" x2="1" y2="1"><stop offset="0%" stop-color="#0e0018"/><stop offset="100%" stop-color="#060010"/></linearGradient>
  </defs>
  <rect width="80" height="80" rx="18" fill="url(#lbg)"/>
  <rect width="80" height="80" rx="18" fill="url(#lg)"/>
  <rect x="1" y="1" width="78" height="78" rx="17" stroke="#a855f7" stroke-opacity="0.45" stroke-width="1.5"/>
  <ellipse cx="40" cy="28" rx="11" ry="13" fill="#a855f7" fill-opacity="0.2" stroke="#a855f7" stroke-opacity="0.7" stroke-width="1.5"/>
  <ellipse cx="40" cy="34" rx="7" ry="9" fill="#c4b5fd" fill-opacity="0.15"/>
  <circle cx="36.5" cy="24" r="2.5" fill="#a855f7" fill-opacity="0.8"/>
  <circle cx="43.5" cy="24" r="2.5" fill="#a855f7" fill-opacity="0.8"/>
  <circle cx="36.5" cy="24" r="1.2" fill="#c4b5fd"/>
  <circle cx="43.5" cy="24" r="1.2" fill="#c4b5fd"/>
  <path d="M38 29 L40 32 L42 29 Z" fill="#f7df1e" fill-opacity="0.8"/>
  <ellipse cx="40" cy="46" rx="10" ry="9" fill="#a855f7" fill-opacity="0.15" stroke="#a855f7" stroke-opacity="0.5" stroke-width="1.5"/>
  <ellipse cx="40" cy="46" rx="6" ry="6" fill="#c4b5fd" fill-opacity="0.12"/>
  <path d="M34 55 L31 62 M34 55 L34 62 M34 55 L37 61" stroke="#a855f7" stroke-opacity="0.7" stroke-width="1.5" stroke-linecap="round"/>
  <path d="M46 55 L43 62 M46 55 L46 62 M46 55 L49 61" stroke="#a855f7" stroke-opacity="0.7" stroke-width="1.5" stroke-linecap="round"/>
</svg>
