<svg viewBox="0 0 80 80" fill="none" xmlns="http://www.w3.org/2000/svg">
  <defs>
    <radialGradient id="rg" cx="50%" cy="50%" r="55%"><stop offset="0%" stop-color="#06b6d4" stop-opacity="0.3"/><stop offset="100%" stop-color="#06b6d4" stop-opacity="0"/></radialGradient>
    <linearGradient id="rbg" x1="0" y1="0" x2="1" y2="1"><stop offset="0%" stop-color="#001018"/><stop offset="100%" stop-color="#00080e"/></linearGradient>
  </defs>
  <rect width="80" height="80" rx="18" fill="url(#rbg)"/>
  <rect width="80" height="80" rx="18" fill="url(#rg)"/>
  <rect x="1" y="1" width="78" height="78" rx="17" stroke="#06b6d4" stroke-opacity="0.45" stroke-width="1.5"/>
  <rect x="24" y="20" width="32" height="26" rx="6" fill="#06b6d4" fill-opacity="0.15" stroke="#06b6d4" stroke-opacity="0.7" stroke-width="1.5"/>
  <line x1="40" y1="20" x2="40" y2="13" stroke="#06b6d4" stroke-opacity="0.7" stroke-width="1.5" stroke-linecap="round"/>
  <circle cx="40" cy="11" r="3" fill="#06b6d4" fill-opacity="0.5" stroke="#06b6d4" stroke-width="1"/>
  <circle cx="40" cy="11" r="1.5" fill="#67e8f9"/>
  <rect x="29" y="28" width="8" height="6" rx="2" fill="#06b6d4" fill-opacity="0.25" stroke="#06b6d4" stroke-opacity="0.8" stroke-width="1"/>
  <rect x="43" y="28" width="8" height="6" rx="2" fill="#06b6d4" fill-opacity="0.25" stroke="#06b6d4" stroke-opacity="0.8" stroke-width="1"/>
  <rect x="31" y="29.5" width="4" height="3" rx="1" fill="#67e8f9" fill-opacity="0.9"/>
  <rect x="45" y="29.5" width="4" height="3" rx="1" fill="#67e8f9" fill-opacity="0.9"/>
  <rect x="32" y="38" width="16" height="4" rx="2" fill="#06b6d4" fill-opacity="0.2" stroke="#06b6d4" stroke-opacity="0.6" stroke-width="1"/>
  <line x1="36" y1="38" x2="36" y2="42" stroke="#06b6d4" stroke-opacity="0.5" stroke-width="1"/>
  <line x1="40" y1="38" x2="40" y2="42" stroke="#06b6d4" stroke-opacity="0.5" stroke-width="1"/>
  <line x1="44" y1="38" x2="44" y2="42" stroke="#06b6d4" stroke-opacity="0.5" stroke-width="1"/>
  <rect x="27" y="50" width="26" height="18" rx="5" fill="#06b6d4" fill-opacity="0.12" stroke="#06b6d4" stroke-opacity="0.5" stroke-width="1.5"/>
  <circle cx="40" cy="59" r="4" fill="#06b6d4" fill-opacity="0.2" stroke="#06b6d4" stroke-opacity="0.6" stroke-width="1"/>
  <circle cx="40" cy="59" r="2" fill="#67e8f9" fill-opacity="0.7"/>
</svg>
