<svg viewBox="0 0 80 80" fill="none" xmlns="http://www.w3.org/2000/svg">
  <defs>
    <radialGradient id="tg" cx="50%" cy="50%" r="55%"><stop offset="0%" stop-color="#06b6d4" stop-opacity="0.28"/><stop offset="100%" stop-color="#0ea5e9" stop-opacity="0"/></radialGradient>
    <linearGradient id="tbg" x1="0" y1="0" x2="1" y2="1"><stop offset="0%" stop-color="#00101a"/><stop offset="100%" stop-color="#000c14"/></linearGradient>
  </defs>
  <rect width="80" height="80" rx="18" fill="url(#tbg)"/>
  <rect width="80" height="80" rx="18" fill="url(#tg)"/>
  <rect x="1" y="1" width="78" height="78" rx="17" stroke="#06b6d4" stroke-opacity="0.4" stroke-width="1.5"/>
  <!-- Tailwind wave shape — top wave -->
  <path d="M10 32 C16 22, 24 22, 30 32 C36 42, 44 42, 50 32 C56 22, 64 22, 70 32"
    stroke="#06b6d4" stroke-opacity="0.85" stroke-width="3" stroke-linecap="round" fill="none"/>
  <!-- bottom wave -->
  <path d="M10 46 C16 36, 24 36, 30 46 C36 56, 44 56, 50 46 C56 36, 64 36, 70 46"
    stroke="#06b6d4" stroke-opacity="0.55" stroke-width="3" stroke-linecap="round" fill="none"/>
  <!-- glow dots on peaks -->
  <circle cx="10" cy="32" r="2" fill="#67e8f9" opacity="0.7"/>
  <circle cx="70" cy="32" r="2" fill="#67e8f9" opacity="0.7"/>
  <circle cx="40" cy="32" r="2" fill="#67e8f9" opacity="0.5"/>
</svg>
